# xmcd
# 
# Track frame offsets:
#   150
#   18389
#   40363
#   58936
#   71281
#   83658
# 
# Disc length: 1335 seconds
# 
# Revision: 0
# Processed by: cddbd v1.5.2PL0 Copyright (c) Steve Scherf et al.
# Submitted via: Synapstar 1.0 
# 
DISCID=47053506
DTITLE=Various Artist - Robert's New Mix 7-25-08
DYEAR=1900
DGENRE=Country
TTITLE0=Montgomery Gentry - Back When I Knew It All
TTITLE1=Montgomery Gentry - Hell Yeah
TTITLE2=Cross Canadian Ragweed - Alabama (Album Version)
TTITLE3=Trini Triggs - Straight Tequila
TTITLE4=Trini Triggs - Horse To Mexico
TTITLE5=Brooks and Dunn - Mexican Minutes
EXTD=MediaType: Audio CD Producer: Unknown
EXTT0=
EXTT1=
EXTT2=
EXTT3=
EXTT4=
EXTT5=
PLAYORDER=
